Coordinates
version=1
nRows=21
nColumns=12
inDegrees=yes

Units are S.I. units (second, meters, Newtons, ...)
Angles are in degrees

endheader
time	SC_y	SC_z	SC_x	AC_y	AC_z	AC_x	GH_y	GH_z	GH_yy	EL_x	PS_y
       0.0               -32.8          35.79          59.98           42.6         -11.89          16.05         -62.55          70.51          64.52           38.5          14.71
    0.0367               -32.8          35.79          59.98           42.6         -11.89          16.05         -62.56           70.5          64.51           38.5          14.73
    0.0734               -32.8          35.78          59.98           42.6         -11.89          16.05         -62.57          70.49           64.5           38.5          14.74
    0.1101              -32.81          35.78          59.98           42.6         -11.88          16.05         -62.58          70.48          64.49           38.5          14.76
    0.1468              -32.81          35.78          59.98           42.6         -11.88          16.04         -62.59          70.47          64.48          38.49          14.78
    0.1835              -32.81          35.77          59.98           42.6         -11.88          16.04          -62.6          70.46          64.47          38.49           14.8
    0.2202              -32.82          35.77          59.98           42.6         -11.87          16.04         -62.61          70.45          64.46          38.49          14.82
    0.2569              -32.82          35.76          59.98           42.6         -11.87          16.04         -62.62          70.44          64.45          38.48          14.85
    0.2936              -32.83          35.76          59.98           42.6         -11.87          16.04         -62.63          70.42          64.43          38.48          14.87
    0.3303              -32.83          35.75          59.98           42.6         -11.86          16.03         -62.65          70.41          64.42          38.48           14.9
     0.367              -32.83          35.75          59.98           42.6         -11.86          16.03         -62.66          70.39           64.4          38.47          14.92
    0.4037              -32.84          35.74          59.98           42.6         -11.85          16.03         -62.68          70.38          64.38          38.47          14.96
    0.4404              -32.85          35.74          59.98           42.6         -11.85          16.02         -62.69          70.36          64.37          38.46          14.99
    0.4771              -32.85          35.73          59.97           42.6         -11.84          16.02         -62.71          70.34          64.35          38.46          15.02
    0.5138              -32.86          35.72          59.97           42.6         -11.83          16.02         -62.73          70.32          64.33          38.45          15.06
    0.5505              -32.86          35.72          59.97           42.6         -11.83          16.01         -62.75           70.3           64.3          38.45           15.1
    0.5872              -32.87          35.71          59.97           42.6         -11.82          16.01         -62.78          70.27          64.28          38.44          15.15
    0.6239              -32.88           35.7          59.97           42.6         -11.81           16.0          -62.8          70.25          64.25          38.44           15.2
    0.6606              -32.89          35.69          59.97           42.6          -11.8           16.0         -62.83          70.22          64.22          38.43          15.25
    0.6973               -32.9          35.68          59.97           42.6         -11.79          15.99         -62.86          70.19          64.19          38.42          15.31
     0.734              -32.91          35.67          59.97           42.6         -11.78          15.98         -62.89          70.15          64.15          38.41          15.38
